<svg xmlns="http://www.w3.org/2000/svg" width="96" height="31" viewBox="0 0 96 31">
    <g fill="none">
        <path fill="#90F" d="M79.597 8.48c-1.76-1.759-.955-4.763 1.45-5.407L91.498.272c2.404-.644 4.603 1.555 3.96 3.959l-2.802 10.453c-.644 2.403-3.648 3.209-5.408 1.449l-7.652-7.652z"/>
        <path fill="#EEB850" d="M73.17 14.81c-1.76-1.76-.955-4.764 1.449-5.408L85.072 6.6c2.403-.644 4.603 1.555 3.959 3.959L86.23 21.013c-.644 2.403-3.648 3.208-5.408 1.449l-7.653-7.653z"/>
        <path fill="#FFF" d="M.36 22.627V.84h3.458v21.787H.36zM20.1 21.56c-1.013.711-2.446 1.067-4.3 1.067H8.43v-2.974h7.048c1.874 0 2.812-.57 2.812-1.713 0-.884-.722-2.112-2.166-3.685a33.798 33.798 0 00-4.46-4.202l2.1-2.683c1.897 1.53 3.707 3.308 5.43 5.333 1.725 2.005 2.587 3.675 2.587 5.01 0 .475-.054.96-.162 1.455.302.151.668.27 1.1.356.452.086.904.13 1.357.13h1.163v2.973h-1.163c-.56 0-1.207-.086-1.94-.259a7.877 7.877 0 01-2.036-.808zm4.563 1.067v-2.974h7.144v2.974h-7.144zm6.566 0v-2.974h7.144v2.974h-7.144zM50.014 7.822v9.084c0 3.814-2.285 5.721-6.853 5.721h-5.366v-2.974h5.236c1.315 0 2.22-.27 2.716-.808.517-.539.776-1.347.776-2.424V7.822h3.49zm-6.465 19.945c0 .625-.205 1.13-.614 1.519-.41.388-.938.582-1.584.582a2.025 2.025 0 01-1.487-.614c-.388-.388-.582-.884-.582-1.487 0-.604.205-1.1.614-1.487.41-.388.916-.582 1.52-.582.603 0 1.11.194 1.519.582.409.388.614.883.614 1.487zm5.43 0c0 .625-.205 1.13-.614 1.519-.41.388-.937.582-1.584.582a2.025 2.025 0 01-1.487-.614c-.388-.388-.582-.884-.582-1.487 0-.604.205-1.1.615-1.487.409-.388.915-.582 1.519-.582.603 0 1.11.194 1.519.582.41.388.614.883.614 1.487zM62.106 4.364c0 .625-.205 1.131-.614 1.519-.41.388-.938.582-1.584.582a2.083 2.083 0 01-1.487-.582c-.388-.41-.582-.916-.582-1.52 0-.603.204-1.098.614-1.486.41-.388.916-.582 1.52-.582.603 0 1.109.194 1.519.582.41.388.614.883.614 1.487zM52.57 27.476a12 12 0 001.487.097c2.845 0 4.267-1.66 4.267-4.978V9.6h3.491v11.831c0 3.383-.754 5.775-2.263 7.176-1.4 1.271-3.275 1.907-5.624 1.907-.56 0-1.293-.054-2.198-.161l.84-2.877z"/>
    </g>
</svg>
