<svg xmlns="http://www.w3.org/2000/svg" width="30" height="48" viewBox="0 0 30 48">
    <g fill="#FF0031">
        <g>
            <path d="M.417.417h.47V2.4h3.078v.417H.887v3.861c0 1.67.522 2.505 1.878 2.505.47 0 .887-.21 1.148-.366l.209.366c-.313.208-.835.47-1.409.47C1.148 9.652.47 8.66.47 6.834V.417H.417zM5.948 2.87c.678-.418 1.356-.627 2.191-.627 1.93 0 2.557 1.044 2.557 2.818v4.435h-.47V8.243c-.47.627-1.252 1.305-2.66 1.305-1.357 0-2.244-.835-2.244-2.035 0-1.409 1.148-2.191 2.713-2.191.574 0 1.513.104 2.139.574 0-1.983-.104-3.287-2.191-3.287-.835 0-1.305.208-1.983.626l-.052-.365zm4.33 4.956V6.417C9.652 6 8.974 5.791 8.14 5.791c-1.096 0-2.243.522-2.243 1.774 0 1.044.834 1.67 1.826 1.67 1.46-.052 2.087-.783 2.556-1.409zM13.252 2.4h.47v1.043c.574-.678 1.67-1.2 2.765-1.2 2.14 0 3.391 1.514 3.391 3.6 0 2.192-1.46 3.81-3.652 3.81-.991 0-1.878-.21-2.504-.731v3.756h-.47V2.4zm.47 1.46v4.592c.835.574 1.67.783 2.504.783 1.878 0 3.183-1.357 3.183-3.34 0-1.93-1.096-3.234-3.026-3.234-1.148 0-2.192.626-2.661 1.2z" transform="translate(5.74 34.957)"/>
        </g>
        <path d="M15.13.104C6.991.104.417 6.678.417 14.765S6.991 29.478 15.13 29.478c8.14 0 14.713-6.574 14.713-14.713S23.27.105 15.13.105zm0 27.235c-6.939 0-12.573-5.635-12.573-12.574S8.19 2.243 15.13 2.243c6.94 0 12.574 5.635 12.574 12.574 0 6.887-5.634 12.522-12.574 12.522z"/>
        <path d="M15.13 4.122c-5.895 0-10.695 4.748-10.695 10.643 0 5.896 4.8 10.696 10.695 10.696 5.896 0 10.696-4.8 10.696-10.696 0-5.895-4.8-10.643-10.696-10.643zm0 18.991c-4.59 0-8.347-3.756-8.347-8.348 0-4.591 3.756-8.348 8.347-8.348 4.592 0 8.348 3.757 8.348 8.348 0 4.644-3.756 8.348-8.348 8.348z"/>
    </g>
</svg>
